<svg width="512" height="512" xmlns="http://www.w3.org/2000/svg">

 <g>
  <title>Layer 1</title>
  <rect id="svg_1" ry="32" rx="32" width="512" height="512" fill="#000"/>
  <path id="svg_3" d="m440.60999,212.85001c-3.508,-0.006 -7.17599,0.35001 -10.97,1.07401c-15.17398,2.895 -31.83499,11.907 -45.55402,26.533c-4.884,5.20799 -9.02298,10.74699 -12.43399,16.412c-93.246,-57.58301 -331.013,75.58499 -179.69699,189.32001l-119.31499,0l-26.453,47.74399l257.16502,0l-88.48001,-103.25c24.27199,-26.70999 67.45499,-43.70801 96.99701,-45.06702c13.79199,45.09802 36.24799,113.5 71.73398,148.31503l60.86502,0c-43.89999,-47.444 -77.84,-111.50201 -82.23599,-183.94003c1.88699,5.67001 4.93799,10.59702 9.13699,14.55002c9.04599,8.51801 22.19199,11.49701 37.366,8.603c15.17499,-2.89499 31.83798,-11.905 45.55701,-26.53201c13.72,-14.62598 21.66599,-31.854 23.60999,-47.22c1.94299,-15.36699 -1.85001,-28.34999 -10.89499,-36.86798c-6.784,-6.38701 -15.875,-9.66 -26.39999,-9.675l0.00296,0.00099z" opacity="undefined" stroke-linecap="undefined" stroke-linejoin="undefined" stroke="#000" fill="#fff"/>
 </g>
</svg>